<svg
   xmlns:dc="http://purl.org/dc/elements/1.1/"
   xmlns:cc="http://creativecommons.org/ns#"
   xmlns:rdf="http://www.w3.org/1999/02/22-rdf-syntax-ns#"
   xmlns:svg="http://www.w3.org/2000/svg"
   xmlns="http://www.w3.org/2000/svg"
   xmlns:sodipodi="http://sodipodi.sourceforge.net/DTD/sodipodi-0.dtd"
   xmlns:inkscape="http://www.inkscape.org/namespaces/inkscape"
   width="50.10561mm"
   height="50.69308mm"
   viewBox="0 0 102.10561 101.69308"
   version="1.1"
   id="svg8"
   inkscape:version="0.92.4 (5da689c313, 2019-01-14)"
   sodipodi:docname="Honesty_inkscape_WIP.svg">
  <defs
     id="defs2">
    <clipPath
       clipPathUnits="userSpaceOnUse"
       id="clipPath859">
      <rect
         style="fill:#ff0000;fill-opacity:1;stroke-width:0.24336068"
         id="rect861"
         width="103.94345"
         height="103.1875"
         x="47.625"
         y="36.574406" />
    </clipPath>
  </defs>
  <sodipodi:namedview
     id="base"
     pagecolor="#ffffff"
     bordercolor="#666666"
     borderopacity="1.0"
     inkscape:pageopacity="0.0"
     inkscape:pageshadow="2"
     inkscape:zoom="4.6876586"
     inkscape:cx="163.70747"
     inkscape:cy="192.09735"
     inkscape:document-units="mm"
     inkscape:current-layer="layer4"
     showgrid="false"
     inkscape:window-width="3840"
     inkscape:window-height="2054"
     inkscape:window-x="-11"
     inkscape:window-y="-11"
     inkscape:window-maximized="1" />
  <metadata
     id="metadata5">
    <rdf:RDF>
      <cc:Work
         rdf:about="">
        <dc:format>image/svg+xml</dc:format>
        <dc:type
           rdf:resource="http://purl.org/dc/dcmitype/StillImage" />
        <dc:title></dc:title>
      </cc:Work>
    </rdf:RDF>
  </metadata>
  <g
     inkscape:groupmode="layer"
     id="layer4"
     inkscape:label="Layer 4"
     style="display:inline">
    <path
       style="fill:#e9c6af;fill-opacity:1;stroke-width:0.21332611"
       d="m 102.93086,374.8384 c 0,-0.50554 0.23823,-4.75339 0.52941,-9.43968 2.70893,-43.59889 4.58442,-80.26734 4.60927,-90.11776 0.021,-8.31031 -0.34141,-9.60821 -5.64244,-20.20949 -4.209115,-8.41764 -6.2711,-13.31347 -8.520025,-20.22933 -3.523212,-10.83456 -7.178778,-30.06376 -9.426313,-49.5848 -0.303944,-2.63991 -0.742216,-5.56781 -0.97394,-6.50645 -2.77207,-11.22873 -3.389591,-15.86807 -3.555223,-26.70983 -0.173056,-11.32765 0.472972,-19.23739 2.612816,-31.99043 2.213474,-13.19186 6.813252,-31.803866 9.799525,-39.65166 2.226641,-5.851516 6.465493,-13.933461 10.34497,-19.724079 12.1756,-18.173668 30.74882,-34.370579 48.99493,-42.72638 7.76596,-3.556418 17.26656,-6.171169 28.02442,-7.712868 22.82342,-3.2708059 51.31276,-1.5285024 76.73676,4.692939 10.68068,2.613641 16.59826,5.161546 25.23312,10.864515 10.37331,6.85114 21.71287,17.574977 31.69634,29.975293 8.9441,11.109329 17.60087,24.579542 19.46769,30.292309 3.10492,9.501675 4.88557,28.803761 5.48566,59.463671 l 0.13463,6.87878 20.24608,37.866 c 11.13534,20.82631 20.27012,37.9756 20.29951,38.10955 0.0355,0.16176 -6.16258,1.36959 -18.45819,3.59697 -10.18139,1.84438 -18.57181,3.41356 -18.64532,3.4871 -0.0735,0.0735 -0.2748,17.67842 -0.44728,39.12196 -0.17245,21.44354 -0.32716,39.00565 -0.34377,39.02692 -0.0166,0.0213 -19.01308,2.38209 -42.21436,5.24627 -23.20128,2.86418 -42.24523,5.26871 -42.3199,5.34337 -0.14657,0.14658 0.27591,43.49824 0.47281,48.51637 l 0.11928,3.0399 h -77.13023 -77.13023 z"
       id="path922"
       inkscape:connector-curvature="0"
       transform="scale(0.26458333)" />
  </g>
  <g
     inkscape:groupmode="layer"
     id="layer2"
     inkscape:label="Layer 2"
     style="display:inline">
    <path
       inkscape:connector-curvature="0"
       id="path829"
       d="m 53.240552,101.5536 c 1.354378,-0.50133 1.738728,-2.483736 0.68571,-3.536756 l -0.64943,-0.64943 H 47.443971 41.611112 V 72.287924 47.208434 L 52.78622,43.202273 c 6.146321,-2.203389 11.188221,-3.984728 11.204252,-3.958531 0.01601,0.02619 -1.597292,5.976636 -3.585141,13.223202 -3.6136,13.1732 -3.614409,13.17567 -4.49109,13.70881 l -0.87684,0.53324 0.123219,1.91993 c 0.255842,3.98655 2.868973,7.68521 6.686542,9.46421 2.490669,1.16067 5.551739,1.35361 8.288258,0.52242 4.362651,-1.32512 7.521181,-5.20134 8.119412,-9.96434 0.14029,-1.11697 0.0761,-1.44776 -0.39805,-2.05052 -0.31093,-0.39528 -0.735279,-0.7187 -0.943001,-0.7187 -0.207719,0 -0.377669,-0.041 -0.377669,-0.0912 0,-0.0792 -6.408089,-23.563193 -7.91681,-29.013001 -0.550812,-1.989646 -0.955259,-2.538085 -2.080029,-2.820517 -0.40236,-0.101028 -4.641933,1.304028 -12.693312,4.206745 L 41.756794,42.52246 41.318001,41.542385 c -0.482743,-1.078245 -0.896726,-1.325012 -2.222868,-1.325012 -1.245454,0 -1.981938,0.989381 -1.981938,2.662508 v 1.268222 l -1.389062,0.519324 c -0.763985,0.285626 -3.889375,1.416719 -6.945313,2.513537 -12.934184,4.64227 -16.703764,6.02165 -17.298434,6.32993 -1.06773,0.55353 -0.8143,-0.27274 -7.6281299,24.87088 -1.30076,4.7999 -2.18293,7.60567 -2.39167,7.60677 -0.1819,10e-4 -0.56885005,0.23987 -0.85989005,0.53091 -0.685,0.685 -0.69628,2.32634 -0.0307,4.46487 0.68083005,2.18753 1.58956005,3.65513 3.19047005,5.15259 3.01111,2.81653 7.3370999,3.803261 11.3416099,2.58693 4.3162,-1.31101 7.544227,-5.23484 8.12213,-9.87287 0.170632,-1.36943 0.129995,-1.56247 -0.451263,-2.14373 -0.351329,-0.35133 -0.782807,-0.68679 -0.958839,-0.74547 -0.17603,-0.0587 -0.772139,-1.7729 -1.324687,-3.80939 -0.552548,-2.0365 -2.300751,-8.44351 -3.884901,-14.2378 -2.38422,-8.72066 -2.81552,-10.57511 -2.50428,-10.76746 0.27258,-0.16847 16.167178,-5.87259 22.68222,-8.14001 0.263014,-0.0915 0.330729,4.84743 0.330729,24.12258 v 24.23768 h -5.832858 -5.832862 l -0.64943,0.64943 c -0.869968,0.86997 -0.876297,2.220196 -0.01421,3.030096 l 0.635225,0.59675 13.668359,0.0447 c 7.517598,0.0246 13.886514,-0.0361 14.153134,-0.13476 z M 5.7469861,83.807514 c 0.32908,-1.20054 1.77633,-6.50075 3.21612,-11.77824 1.7311099,-6.34532 2.6852799,-9.43715 2.8170399,-9.12813 0.17399,0.40807 1.05291,3.58628 5.3711,19.42206 0.50157,1.83939 0.91195,3.41696 0.91195,3.50573 0,0.0888 -2.90577,0.1614 -6.45727,0.1614 H 5.1486561 Z M 60.805582,63.566894 c 0.35105,-1.27331 1.7995,-6.56378 3.21877,-11.7566 1.419278,-5.192826 2.607908,-9.414097 2.641399,-9.380606 0.0601,0.06007 6.43078,23.212506 6.43078,23.370726 0,0.0449 -2.90908,0.0816 -6.464609,0.0816 H 60.16732 Z m 8.505878,37.392936 c 0.741072,-0.63981 0.742241,-0.64613 0.672963,-3.638016 -0.0382,-1.64841 -0.191842,-4.1477 -0.341493,-5.55398 -0.307858,-2.89284 -0.172048,-3.79785 0.63976,-4.26313 0.392771,-0.22511 2.983331,-0.37071 8.50238,-0.47787 6.78457,-0.13173 8.129651,-0.22462 9.260422,-0.63949 1.867559,-0.6852 3.145031,-1.58978 4.01343,-2.8419 0.74118,-1.06869 0.749991,-1.12811 0.836729,-5.64583 0.0551,-2.86731 -0.068,-6.13661 -0.330718,-8.78844 -0.230122,-2.32246 -0.418402,-4.33946 -0.418402,-4.4822 0,-0.14437 1.262121,-0.32534 2.844271,-0.40782 3.325738,-0.17338 5.004409,-0.68722 6.330288,-1.93771 0.87549,-0.82569 0.93858,-0.98656 0.81543,-2.07915 -0.18568,-1.64739 -1.39619,-4.07451 -5.687089,-11.40284 -5.5514,-9.481078 -5.040058,-8.0509 -5.35642,-14.981734 C 90.756953,26.457415 90.43569,23.972957 89.47929,21.340046 87.899982,16.992296 85.674003,13.567747 82.208911,10.15495 77.47915,5.4965673 71.044391,2.2468823 63.306943,0.60908129 c -3.224022,-0.682437 -12.407353,-0.679859 -15.610414,0.0044 C 40.948937,2.0549103 34.233748,5.4418623 29.945977,9.5663613 22.124996,17.089534 17.586746,31.870132 19.253476,44.390721 c 0.25713,1.931506 0.56755,3.573663 0.689837,3.649243 0.122285,0.0756 1.10367,-0.17547 2.180855,-0.55787 l 1.958519,-0.695296 -0.24525,-0.969579 C 23.396361,44.073451 23.25424,36.435523 23.613795,33.798204 24.83412,24.847173 28.091975,17.50158 32.92899,12.794913 38.732416,7.1478783 47.630205,3.9734923 56.692362,4.3170593 c 12.428119,0.471179 22.76321,6.3671737 27.44997,15.6597447 1.951361,3.869013 2.305148,5.895784 2.657819,15.226052 l 0.19549,5.171884 1.240222,2.565308 c 0.682119,1.410919 2.98772,5.556666 5.12355,9.212766 2.135828,3.6561 3.89754,6.83924 3.91491,7.07364 0.0416,0.5611 -1.438291,0.78711 -5.39238,0.82353 -4.487651,0.0413 -4.72626,0.3377 -4.119282,5.11647 0.54774,4.31232 0.94285,9.77183 0.943641,13.03872 5.29e-4,2.45326 -0.0487,2.71223 -0.61845,3.24746 -1.154369,1.08448 -2.062911,1.19525 -10.096532,1.231 -6.348449,0.0282 -7.930679,0.11093 -9.16618,0.47903 -1.765948,0.52613 -2.957219,1.71609 -3.423298,3.41953 -0.300551,1.09845 -0.209521,5.34844 0.192749,8.9993 l 0.16764,1.52136 h -4.828969 -4.82896 l 0.207369,0.99218 c 0.26624,1.27384 0.27382,1.878781 0.0348,2.778126 l -0.193371,0.7276 h 6.208001 c 6.188099,0 6.210369,-0.002 6.95035,-0.6409 z"
       style="display:inline;opacity:1;fill:#b9b9b9;fill-opacity:0.5;stroke-width:0.26458332" />
  </g>
  <g
     inkscape:label="Layer 1"
     inkscape:groupmode="layer"
     id="layer1"
     style="display:inline;opacity:1"
     transform="translate(-48.350386,-37.557147)">
    <path
       inkscape:connector-curvature="0"
       id="path819"
       d="m 102.03024,138.57719 c 0.84122,-0.72358 0.94043,-2.04585 0.21376,-2.84881 -0.42152,-0.46577 -0.89746,-0.50258 -6.499233,-0.50258 H 89.700358 V 109.98695 84.748103 l 2.976563,-1.085474 c 12.509949,-4.56202 19.658209,-7.051585 19.730999,-6.871827 0.0846,0.209036 -6.61048,25.008108 -7.0971,26.287998 -0.13834,0.36387 -0.43033,0.66159 -0.64886,0.66159 -0.21853,0 -0.59119,0.29588 -0.82814,0.65751 -0.37238,0.56832 -0.38996,0.90033 -0.12957,2.4474 1.05236,6.25243 6.91762,10.63616 12.90362,9.64425 4.99843,-0.82827 8.84483,-4.5518 9.66836,-9.35953 0.36318,-2.12024 0.15641,-3.00769 -0.77298,-3.31749 -0.68456,-0.22818 -0.83073,-0.67379 -3.97792,-12.126907 -1.79699,-6.53951 -3.68255,-13.497372 -4.19014,-15.4619 -0.9823,-3.80187 -1.40489,-4.497917 -2.73079,-4.497917 -0.38606,0 -6.11763,1.951606 -12.73683,4.336899 l -12.03492,4.336907 -0.177247,-0.824806 c -0.343276,-1.597414 -1.953546,-2.240294 -3.161472,-1.262171 -0.480978,0.389472 -0.649959,0.846896 -0.756917,2.048943 l -0.137697,1.547533 -12.961169,4.66545 c -10.140512,3.650142 -13.061242,4.802082 -13.421042,5.293241 -0.33732,0.46051 -7.1407,24.584708 -8.8187,31.270378 -0.10634,0.42372 -0.38491,0.71091 -0.73868,0.76154 -0.940981,0.13468 -1.260241,1.1933 -0.946811,3.13951 1.004221,6.23562 7.08979,10.65127 13.142391,9.53604 4.44631,-0.81927 7.763992,-3.73557 9.087533,-7.98812 0.514448,-1.65292 0.649427,-3.56655 0.291311,-4.12993 -0.111022,-0.17466 -0.486934,-0.42301 -0.835363,-0.55191 -0.582872,-0.21562 -0.947862,-1.3832 -4.566561,-14.60821 -2.16318,-7.90562 -3.83927,-14.459329 -3.724651,-14.563789 0.209971,-0.191338 23.133723,-8.45543 23.454533,-8.45543 0.09474,0 0.14187,10.983521 0.104733,24.407819 l -0.06752,24.40781 -6.003946,0.0711 -6.003942,0.0711 -0.544494,0.69221 c -0.299471,0.38072 -0.544494,0.84915 -0.544494,1.04096 0,0.69961 0.603216,1.64536 1.232249,1.93196 0.445532,0.203 4.805438,0.29376 14.111278,0.29376 h 13.466538 z m -45.297474,-5.50925 c -2.173491,-0.7997 -4.24861,-3.17405 -4.99345,-5.71349 l -0.17462,-0.59531 h 8.352209 c 9.398085,0 8.827797,-0.14692 7.843551,2.02062 -1.45269,3.19914 -5.21985,5.3489 -8.619471,4.91875 -0.58209,-0.0737 -1.665779,-0.35741 -2.408219,-0.63057 z m -3.28089,-9.54995 c -10e-4,-0.81967 6.49497,-23.950347 6.64716,-23.667547 0.0941,0.174937 1.5701,5.437757 3.27991,11.695157 1.70982,6.25739 3.16627,11.58544 3.23657,11.8401 0.11927,0.43207 -0.31634,0.46302 -6.517631,0.46302 -5.139669,0 -6.645579,-0.0749 -6.646009,-0.33073 z m 57.892754,-10.73486 c -2.12147,-1.04035 -3.87648,-3.1658 -4.57199,-5.53701 l -0.17461,-0.59532 h 8.3522 c 6.50676,0 8.35164,0.0731 8.34963,0.33073 -0.005,0.58043 -1.21316,2.94688 -1.95191,3.82179 -0.80417,0.95238 -2.15069,1.84774 -3.57061,2.37425 -1.50189,0.55691 -4.92015,0.3473 -6.43271,-0.39444 z m -2.86598,-9.37347 c -0.004,-0.1819 1.4507,-5.670298 3.23247,-12.196437 2.2008,-8.060902 3.30483,-11.709027 3.44306,-11.377083 0.1119,0.268742 1.57954,5.548783 3.26141,11.733413 1.68188,6.184638 3.1203,11.453157 3.19649,11.707817 0.12934,0.43234 -0.30093,0.46302 -6.49389,0.46302 -5.12575,0 -6.63404,-0.0751 -6.63954,-0.33073 z m 9.22142,34.90794 c 0.69004,-0.73451 0.72792,-1.82903 0.26734,-7.72505 -0.17064,-2.18448 -0.23355,-4.27743 -0.13979,-4.65099 0.3226,-1.28536 1.02077,-1.39649 9.0467,-1.43984 8.0144,-0.0433 9.01485,-0.18069 11.37182,-1.56197 2.6533,-1.55494 3.20158,-3.39838 2.93927,-9.88245 -0.15627,-3.86283 -0.52843,-8.51114 -0.82245,-10.27247 l -0.13742,-0.82327 2.5848,-0.18205 c 3.37245,-0.23751 5.37044,-0.80353 6.60572,-1.871348 0.87339,-0.754978 0.98411,-0.985891 0.94483,-1.97053 -0.0586,-1.469009 -1.32711,-4.03266 -5.63856,-11.395159 -5.50597,-9.402355 -5.17361,-8.527854 -5.37978,-14.155209 C 139.07853,65.180898 138.72193,62.144757 137.8198,59.422679 134.90528,50.628377 127.48064,43.459487 117.74619,40.04052 108.99248,36.966014 99.284006,36.857768 91.105716,39.743488 78.599939,44.156169 71.410656,52.856899 68.395774,67.227889 67.438036,71.793105 67.210116,78.363265 67.860276,82.664268 l 0.456615,3.020605 1.956274,-0.695682 c 1.430274,-0.508624 1.924555,-0.802388 1.838312,-1.092552 -0.06488,-0.218284 -0.241575,-1.405784 -0.392663,-2.638896 -1.048266,-8.555445 1.085178,-18.708117 5.466083,-26.012094 3.069619,-5.117766 8.448487,-9.271607 15.099469,-11.660599 6.941238,-2.493251 15.674034,-2.505731 23.238294,-0.03321 9.04303,2.955888 15.89798,9.29363 18.4538,17.061465 0.79363,2.412074 0.91441,3.451656 1.32415,11.39746 l 0.32168,6.238084 1.37479,2.757749 c 0.75614,1.516761 2.40014,4.484153 3.65333,6.594205 3.65872,6.160339 5.49336,9.52604 5.29874,9.72066 -0.0998,0.0998 -2.082,0.27152 -4.40499,0.381709 -2.32298,0.11018 -4.45924,0.32644 -4.74725,0.480581 -0.76485,0.40934 -0.90022,1.35118 -0.56427,3.925927 0.58209,4.46113 0.85981,8.22528 0.90981,12.33143 l 0.0506,4.15565 -0.73183,0.63254 c -1.31318,1.13504 -2.45913,1.27251 -10.77755,1.29296 l -7.80521,0.0192 -1.50276,0.73797 c -1.23348,0.60573 -1.60817,0.95568 -2.09087,1.95281 -0.55958,1.15595 -0.58003,1.428 -0.42207,5.61203 0.0913,2.41846 0.2434,4.78415 0.33799,5.25709 l 0.17198,0.8599 h -4.93717 -4.93718 l 0.30351,0.5671 c 0.17081,0.31915 0.25212,1.18681 0.18598,1.98439 l -0.11752,1.41725 h 6.1272 c 6.0626,0 6.13329,-0.006 6.7025,-0.61237 z"
       style="display:inline;opacity:1;fill:#494949;fill-opacity:1;stroke-width:0.26458332" />
  </g>
</svg>