<?xml version="1.0" encoding="UTF-8" standalone="no"?>
<!-- Created with Inkscape (http://www.inkscape.org/) -->

<svg
   xmlns:dc="http://purl.org/dc/elements/1.1/"
   xmlns:cc="http://creativecommons.org/ns#"
   xmlns:rdf="http://www.w3.org/1999/02/22-rdf-syntax-ns#"
   xmlns:svg="http://www.w3.org/2000/svg"
   xmlns="http://www.w3.org/2000/svg"
   xmlns:sodipodi="http://sodipodi.sourceforge.net/DTD/sodipodi-0.dtd"
   xmlns:inkscape="http://www.inkscape.org/namespaces/inkscape"
   width="31.348959mm"
   height="31.431652mm"
   viewBox="0 0 31.348959 31.431652"
   version="1.1"
   id="svg8"
   inkscape:version="0.92.4 (5da689c313, 2019-01-14)"
   sodipodi:docname="morality_free_people_inkscape.svg">
  <defs
     id="defs2" />
  <sodipodi:namedview
     id="base"
     pagecolor="#ffffff"
     bordercolor="#666666"
     borderopacity="1.0"
     inkscape:pageopacity="0.0"
     inkscape:pageshadow="2"
     inkscape:zoom="1.979899"
     inkscape:cx="16.423598"
     inkscape:cy="102.32987"
     inkscape:document-units="mm"
     inkscape:current-layer="layer1"
     showgrid="false"
     inkscape:pagecheckerboard="true"
     inkscape:window-width="3240"
     inkscape:window-height="2054"
     inkscape:window-x="-11"
     inkscape:window-y="-11"
     inkscape:window-maximized="1" />
  <metadata
     id="metadata5">
    <rdf:RDF>
      <cc:Work
         rdf:about="">
        <dc:format>image/svg+xml</dc:format>
        <dc:type
           rdf:resource="http://purl.org/dc/dcmitype/StillImage" />
        <dc:title></dc:title>
      </cc:Work>
    </rdf:RDF>
  </metadata>
  <g
     inkscape:label="Layer 1"
     inkscape:groupmode="layer"
     id="layer1"
     transform="translate(-131.69817,-91.647697)">
    <g
       id="g821"
       transform="matrix(0.0061432,0,0,-0.0061432,131.64604,123.07935)"
       style="fill:#ffffff;stroke:none">
      <path
         id="path815"
         d="m 2397,5105 c -400,-76 -699,-410 -733,-820 -14,-168 38,-378 129,-526 54,-88 162,-209 227,-254 l 40,-28 v -100 -100 l -71,-94 -72,-93 H 1435 953 l -17,68 c -24,100 -67,148 -146,162 -109,20 -187,-38 -219,-161 l -16,-64 -165,-5 c -193,-6 -229,-18 -304,-101 -135,-151 -88,-384 97,-481 32,-17 64,-23 139,-26 94,-4 98,-5 93,-26 -26,-110 -155,-693 -155,-698 0,-5 -35,-8 -77,-8 -85,0 -131,-18 -154,-61 -19,-37 -6,-210 24,-302 71,-219 248,-397 472,-473 104,-35 272,-44 385,-20 92,19 214,77 298,141 164,124 282,358 282,560 0,119 -38,155 -163,155 h -75 l -10,43 c -14,53 -152,675 -152,682 0,3 182,5 405,5 h 405 v -149 c 0,-130 2,-152 18,-172 27,-33 78,-30 109,6 24,28 25,30 21,199 -3,186 -8,203 -66,243 -25,17 -61,18 -478,21 l -451,3 -31,147 c -18,81 -32,150 -32,155 0,4 215,7 479,7 313,0 489,4 509,11 22,7 59,48 131,143 l 101,132 v 83 c 0,82 0,83 23,76 140,-45 207,-57 327,-57 102,0 143,4 220,25 52,14 103,28 113,32 15,6 17,-1 17,-76 v -83 l 101,-132 c 72,-95 109,-136 131,-143 20,-7 198,-11 514,-11 266,0 484,-3 484,-7 0,-5 -14,-74 -32,-155 l -32,-148 h -444 c -491,0 -489,0 -535,-64 l -22,-31 -3,-937 -2,-938 h -220 -220 v 344 345 l -26,20 c -35,27 -57,26 -91,-3 l -28,-24 -3,-341 -3,-341 h -214 -215 v 624 c 0,615 0,624 -21,650 -26,33 -79,36 -109,6 -20,-20 -20,-33 -20,-650 V 660 h -202 c -218,0 -260,-7 -308,-47 -63,-52 -70,-82 -70,-283 V 150 h -33 c -69,0 -105,-83 -55,-130 22,-20 27,-20 1333,-20 1306,0 1311,0 1333,20 50,47 14,130 -55,130 h -33 v 180 c 0,201 -7,231 -70,283 -48,41 -90,47 -312,47 h -208 v 910 910 h 410 c 226,0 410,-3 410,-6 0,-5 -144,-650 -157,-701 -5,-21 -11,-23 -69,-23 -124,0 -174,-45 -174,-158 0,-191 110,-418 264,-543 71,-58 186,-119 271,-145 47,-14 93,-19 205,-19 133,0 152,3 225,28 287,100 487,356 503,643 8,147 -32,194 -165,194 -40,0 -73,2 -73,5 0,5 -141,644 -155,701 -5,21 -1,22 88,26 139,6 220,56 277,170 55,112 37,244 -46,337 -74,82 -112,95 -299,101 l -160,5 -17,65 c -19,69 -39,102 -79,133 -54,40 -154,40 -207,0 -42,-31 -61,-64 -78,-135 l -17,-68 h -488 -487 l -71,93 -71,93 v 101 100 l 41,28 c 62,44 179,174 225,251 91,155 127,285 127,464 1,211 -51,370 -120,370 -67,0 -89,-48 -62,-135 72,-233 35,-473 -105,-668 -141,-199 -359,-310 -606,-310 -580,0 -935,623 -643,1126 46,79 158,195 238,247 284,185 655,153 907,-77 69,-63 99,-73 136,-46 19,14 28,31 30,58 3,34 -1,42 -50,87 -111,104 -250,181 -393,219 -105,27 -282,34 -388,14 z M 774,3164 c 9,-8 16,-29 16,-45 0,-29 -2,-30 -37,-27 -36,3 -38,5 -35,33 2,17 10,36 19,43 21,15 18,15 37,-4 z m 3638,-34 c 3,-16 2,-32 0,-35 -7,-7 -67,-6 -74,1 -9,8 10,66 24,75 20,12 45,-8 50,-41 z M 866,2790 c 18,-80 33,-148 33,-152 1,-5 -140,-8 -312,-8 -285,0 -315,2 -347,19 -105,55 -109,209 -8,271 31,19 48,20 317,18 l 284,-3 z m 4022,130 c 102,-62 95,-223 -11,-274 -30,-14 -78,-16 -342,-16 h -307 l 5,23 c 3,12 18,76 32,142 14,66 28,126 30,133 3,9 69,12 282,12 260,0 280,-1 311,-20 z m -3872,-807 81,-363 H 752 c -271,0 -343,3 -340,13 3,6 40,171 83,365 l 78,352 181,-2 181,-3 z m 3619,15 c 43,-194 80,-359 83,-365 3,-10 -31,-13 -150,-13 -141,0 -156,-2 -176,-20 -32,-30 -30,-82 4,-109 26,-20 39,-21 295,-21 h 269 v -37 c 0,-56 -25,-138 -65,-220 -61,-124 -186,-232 -331,-285 -88,-33 -281,-33 -376,0 -211,73 -372,271 -395,485 l -6,57 h 171 c 106,0 181,4 196,11 33,15 50,57 37,91 -13,36 -27,42 -97,48 l -61,5 79,350 c 43,193 80,356 83,363 3,9 49,12 183,12 h 179 z M 1336,1546 c -25,-219 -181,-414 -389,-486 -79,-28 -224,-37 -309,-20 -174,34 -330,154 -411,316 -30,60 -57,158 -57,208 v 36 h 586 587 z M 3641,500 c 18,-10 19,-23 19,-180 V 150 H 2565 1470 v 170 c 0,150 2,170 18,179 24,14 2126,15 2153,1 z"
         inkscape:connector-curvature="0" />
      <path
         id="path817"
         d="m 2482,4820 c -160,-34 -291,-182 -300,-341 -4,-58 -1,-70 17,-88 23,-23 61,-27 91,-11 19,10 34,50 45,121 8,51 55,112 111,145 39,23 60,28 115,28 57,0 74,-4 115,-30 73,-45 107,-100 112,-180 9,-141 -63,-226 -221,-259 -46,-9 -75,-49 -83,-112 -14,-117 14,-186 75,-186 49,0 70,26 73,95 l 3,59 58,24 c 83,33 133,71 178,134 49,68 69,134 69,227 0,202 -151,363 -355,378 -33,3 -79,1 -103,-4 z"
         inkscape:connector-curvature="0" />
      <path
         id="path819"
         d="m 2518,3789 c -23,-13 -40,-78 -32,-118 7,-34 46,-71 74,-71 10,0 29,9 44,21 23,18 26,28 26,80 0,46 -4,63 -20,79 -21,21 -64,26 -92,9 z"
         inkscape:connector-curvature="0" />
    </g>
  </g>
</svg>
